<svg version="1.2" xmlns="http://www.w3.org/2000/svg" viewBox="0 0 4985 1972"><style>.s0 { fill: #2e2a27 }</style><g id="l4De3iwlqqxAUGVzYYiFIWy"><g id="Layer"><path id="p16StydFR1" fill-rule="evenodd" class="s0" d="M15 11c8-4 139-7 290-7 309 1 318 3 382 74 20 22 46 66 59 98l24 59v670c0 525-3 678-13 707-23 66-67 114-132 146l-61 31-274 1c-212 0-275-2-282-12-4-7-8-406-8-886C0 125 2 17 15 11zm234 1536c3 3 56 5 118 4 97-2 116-5 133-21 19-19 19-35 19-472-1-249-2-528-3-620l-1-167-30-16c-20-11-59-15-134-15H245l-2 178c-5 276 0 1123 6 1129z"/><path id="plnar88mB" class="s0" d="M288 270c16 0 45 22 92 70 37 39 65 73 62 77-16 15-58-13-115-77-57-63-61-70-39-70z"/><path id="p7aGhDHCA" class="s0" d="M279 326c21 8 147 155 143 167-8 26-29 13-91-56-61-68-87-125-52-111z"/><path id="p8HRSGFsc" class="s0" d="M273 410c12 0 152 146 152 158 0 32-29 18-91-44-45-45-69-76-69-91 0-13 4-23 8-23z"/><path id="p19wSkkzYz" class="s0" d="M345 565c77 77 90 97 71 110-16 10-151-137-151-165 0-22 10-15 80 55z"/><path id="phGlIL2oA" class="s0" d="M274 580c13 0 131 129 141 154 17 45-5 35-76-35-49-48-74-81-74-96 0-13 4-23 9-23z"/><path id="p1C47WGhOy" class="s0" d="M337 726c76 71 96 100 78 118-14 14-149-132-150-163 0-20 9-15 72 45z"/><path id="pmtFZ9UgF" class="s0" d="M274 750c11 0 151 158 151 170 0 24-31 5-93-58-42-43-67-76-67-90 0-12 4-22 9-22z"/><path id="pF4tuRxEP" class="s0" d="M273 840c15 0 152 148 152 164 0 30-26 16-93-52-42-43-67-76-67-90 0-12 4-22 8-22z"/><path id="psL0km2uo" class="s0" d="M336 985c77 76 94 100 83 116-11 18-154-131-154-160 0-23 7-18 71 44z"/><path id="pWLnL8Z1R" class="s0" d="M274 1010c11 0 151 149 151 160 0 5-5 12-12 16-14 9-148-133-148-158 0-10 4-18 9-18z"/><path id="poJjuaD4e" class="s0" d="M273 1090c18 0 151 161 146 175-4 8-9 15-13 15-3 0-37-31-74-70-46-48-67-77-67-95 0-14 4-25 8-25z"/><path id="p1S1ZaRSO" class="s0" d="M345 1256c44 45 80 86 80 93 0 25-29 7-93-57-47-47-67-75-67-92 0-22 10-15 80 56z"/><path id="p1GPaNHUpJ" class="s0" d="M345 1336c44 45 80 86 80 93 0 26-34 7-95-53-50-49-65-70-65-92 0-28 4-25 80 52z"/><path id="pOqoxlU0D" class="s0" d="M316 1385c53 52 109 122 109 137 0 22-32 2-93-60-52-52-67-74-67-97v-29z"/><path id="p9rxf8tJf" class="s0" d="M313 1475c46 49 46 50 22 53-31 5-70-38-70-76 0-26 2-25 48 23z"/><path id="pln19spbn" class="s0" d="M379 270c29 0 116 90 116 120 0 11-4 20-8 20-10 0-132-123-132-133 0-4 11-7 24-7z"/><path id="pITlb1Ppb" class="s0" d="M462 272c22 2 29 9 31 31 4 33-8 34-36 4-29-31-28-39 5-35z"/><path id="pQ2Z6qFQA" class="s0" d="M53 1820c14 0 136 129 129 137-4 4-37-22-72-57-61-61-75-80-57-80z"/><path id="p15FnvfwGw" class="s0" d="M122 1810c9 0 48 33 85 73 59 62 65 72 46 75-15 3-39-15-84-59-65-64-78-89-47-89z"/><path id="p8IUb0fpG" class="s0" d="M207 1810c15 0 45 25 90 72 67 73 76 103 21 75-26-14-133-127-133-141 0-3 10-6 22-6z"/><path id="pgQOqGJlC" class="s0" d="M298 1820c16 0 44 21 85 64 63 66 74 86 46 86-16 0-154-127-154-142 0-4 11-8 23-8z"/><path id="p9SvB1CXi" class="s0" d="M376 1820c17 0 43 19 87 63 34 34 62 68 62 75 0 27-29 8-100-63-66-67-72-75-49-75z"/><path id="p1Btr90ZXP" class="s0" d="M471 1814c22 6 143 122 152 147 2 5-6 9-18 9-13 0-49-26-91-67-73-71-88-100-43-89z"/><path id="pupciRWJg" class="s0" d="M532 1816c18-17 46 1 107 69 53 58 64 76 52 81-9 3-27-1-39-9-33-21-128-133-120-141z"/><path id="pVgU4FaZY" class="s0" d="M617 1794c12-7 158 138 158 157 0 27-43 1-102-63-71-75-75-82-56-94z"/><path id="p688bX27g" class="s0" d="M671 1763c11-4 39 17 90 68 74 74 85 92 60 102-12 5-166-139-166-156 0-4 7-10 16-14z"/><path id="pvlM5bOgk" class="s0" d="M710 1730c14-12 25-4 96 66 43 43 79 82 79 86 0 5-10 8-21 8-13 0-51-29-96-73-67-66-73-74-58-87z"/><path id="pscU0oyJ8" class="s0" d="M756 1675c11-8 158 143 159 163 1 27-29 9-98-61-71-72-82-90-61-102z"/><path id="p16R9sgLJ" class="s0" d="M772 1623c9-25 30-12 96 61 64 72 82 106 54 106-19 0-155-152-150-167z"/><path id="p17cRANueT" class="s0" d="M791 190c3 0 29 19 57 43 28 23 48 35 45 26-13-33-49-231-45-243 5-14 204-21 225-8 16 10 68 221 182 737 50 226 92 415 94 420 5 14 11-8 25-85 17-89 100-440 110-466 8-18 18-20 109-22 69-1 103 2 109 11 12 15 44 139 88 347 19 91 39 179 43 195 9 34-4 83 127-495 113-497 144-629 151-639 5-6 207-10 227-5 12 4 16 12 12 27-2 12-14 60-24 107-11 47-34 150-51 230s-56 253-86 385-63 281-74 330c-61 270-152 659-160 680-9 23-12 24-109 22-55-1-105-7-111-13-12-12-74-266-129-529-10-48-10-48-50 140-43 202-80 355-91 382-9 21-14 22-112 19-99-3-103-4-116-29-11-22-26-88-97-412-8-38-53-235-100-436s-85-369-85-372-6-7-13-9-43-35-80-74c-50-54-67-79-67-100 0-27 3-25 75 46 41 41 75 69 75 62s-34-48-75-91q-75-78-75-102c0-21 6-17 55 31 30 29 58 51 62 47s-23-38-60-75c-62-62-77-82-61-82z"/><path id="p14E5lXTBS" class="s0" d="M795 430c7-12 23 0 79 60 44 46 71 84 71 98 0 12-4 22-9 22-8 0-144-144-148-158-2-4 2-14 7-22z"/><path id="pfluR24Qi" class="s0" d="M793 510c13 0 162 154 162 168 0 27-30 8-98-62-64-65-88-106-64-106z"/><path id="pjd6zkS1x" class="s0" d="M793 601c7-20 152 128 152 156 0 13-3 23-8 23-12 0-146-138-147-152-1-7 0-19 3-27z"/><path id="pqdbFfeIX" class="s0" d="M793 772c6-9 27 7 74 55 74 78 94 108 77 119-12 7-159-135-159-152 0-5 4-15 8-22z"/><path id="pWXSlVXbd" class="s0" d="M793 850c4 0 40 33 80 73 47 47 72 80 72 95 0 19-3 21-20 12-27-15-140-147-140-165 0-8 3-15 8-15z"/><path id="p10A0QoJ7d" class="s0" d="M795 950c15-23 150 117 150 156 0 27-3 25-80-51-44-44-80-82-80-85s5-12 10-20z"/><path id="pQO3p5XB" class="s0" d="M792 1032c6-16 39 10 108 87 36 40 52 66 48 77-4 12-24-3-84-62-44-43-79-81-78-84 0-3 3-11 6-18z"/><path id="pPEwjRaRA" class="s0" d="M795 1120c8-12 23-2 80 55 46 45 70 77 70 92 0 13-4 23-8 23-8 0-152-144-152-151 0-2 5-11 10-19z"/><path id="peSoymK88" class="s0" d="M794 1286c4-3 43 31 86 75 61 62 75 83 66 92s-28-5-86-64c-73-74-84-92-66-103z"/><path id="pK5szSeFg" class="s0" d="M795 1379c7-11 23 0 75 51 77 75 87 91 75 111-7 11-23 0-75-51-77-75-87-91-75-111z"/><path id="pnwCvojL9" class="s0" d="M796 1544c7-4 40 22 80 63 53 54 69 77 69 99 0 27-4 25-80-51-79-79-91-97-69-111z"/><path id="pUEClJSVN" class="s0" d="M804 680c5 0 39 32 75 71 46 50 66 79 66 97 0 24-7 20-75-48-50-49-75-82-75-97 0-13 4-23 9-23z"/><path id="p1DLmLehkk" class="s0" d="M814 1200c55 29 157 180 122 180-4 0-38-32-75-71-44-47-66-79-66-95 0-21 3-23 19-14z"/><path id="pgiDv1GEG" class="s0" d="M870 1520c65 65 93 110 67 110-4 0-38-30-75-68-46-46-67-75-67-92 0-22 9-16 75 50z"/><path id="p6myWU1u4" class="s0" d="M1133 60c14 0 132 125 132 140 0 8-32-17-70-55-66-66-80-85-62-85z"/><path id="pCpd4gMKu" class="s0" d="M1163 149c33 18 122 120 122 140 0 12-4 21-9 21-15 0-112-101-122-127-14-37-12-45 9-34z"/><path id="pCd915x6x" class="s0" d="M1175 260c30 0 140 126 140 160 0 18-70-41-112-93-39-50-46-67-28-67z"/><path id="pV6Ki34Nh" class="s0" d="M1231 390c45 39 114 118 114 130 0 27-25 12-84-50-38-41-66-79-66-91 0-19 3-18 36 11z"/><path id="pesi4WvHd" class="s0" d="M1279 520c62 61 96 113 82 127-8 9-113-94-132-129-33-63-14-62 50 2z"/><path id="p8kRxd7lh" class="s0" d="M1314 644c59 59 94 116 71 116-4 0-37-31-73-69-44-45-67-77-67-92 0-20 10-14 69 45z"/><path id="p4vCBnMBM" class="s0" d="M1273 690c15 0 132 128 132 144 0 28-20 18-75-36-47-47-79-108-57-108z"/><path id="p148CZbK5j" class="s0" d="M1304 810c5 0 27 18 49 41 28 27 38 46 35 60-8 28-17 24-57-23-34-39-47-78-27-78z"/><path id="pXfaKOAU3" class="s0" d="M1315 1840c5 0 10 5 10 11 0 5-5 7-10 4-6-3-10-8-10-11 0-2 4-4 10-4z"/><path id="pXWdHZga5" class="s0" d="M1320 920c17 0 55 35 55 51 0 27-25 24-44-6-16-24-21-45-11-45z"/><path id="pyG4L3IDt" class="s0" d="M1342 1817c3-4 12-7 19-7 15 0 138 126 142 146 7 30-29 12-85-43-71-70-85-88-76-96z"/><path id="pZUJIuxkE" class="s0" d="M1387 1907c23 23 39 45 35 49-3 4-22-9-42-29-19-19-35-41-35-48 0-8 19 5 42 28z"/><path id="pdfypOzMY" class="s0" d="M1442 1810c20 0 155 139 147 152-11 17-28 6-95-59-69-67-84-93-52-93z"/><path id="p12Fyan9YN" class="s0" d="M1496 1774c6-4 37 21 71 56 78 82 94 108 80 122-9 9-31-9-87-68-74-79-85-97-64-110z"/><path id="pcER4JitX" class="s0" d="M1513 1700c18 0 152 149 152 169 0 12-3 21-7 21s-40-33-80-72c-48-48-73-80-73-95 0-13 4-23 8-23z"/><path id="pNtyIq81f" class="s0" d="M1526 1644c6-3 40 22 76 57 71 70 87 94 77 110-6 10-164-137-164-153 0-4 5-10 11-14z"/><path id="pEldQAfpS" class="s0" d="M1552 1569c56 30 156 161 138 179-3 3-39-27-80-68-50-50-75-82-75-98 0-19 3-21 17-13z"/><path id="po4UkS4ZU" class="s0" d="M1552 1508c6-26 15-23 55 20 40 41 58 72 58 98 0 12-18 0-58-37-63-60-61-57-55-81z"/><path id="p16OPmQKHA" class="s0" d="M1578 1430c23 0 59 46 55 70-3 22-4 22-36-10-33-35-41-60-19-60z"/><path id="pzoORHOZv" class="s0" d="M1595 1350c11 0 25 48 17 56-3 4-10 3-16-1-14-8-14-55-1-55z"/><path id="p1CysYpxrz" class="s0" d="M1758 670c19 0 137 123 137 143 0 28-13 20-75-42-60-61-85-101-62-101z"/><path id="pQIpnZRpp" class="s0" d="M1782 770c5 0 30 22 57 49 37 38 47 53 41 70-9 30-19 26-59-22-34-42-57-97-39-97z"/><path id="pgNFUXhWB" class="s0" d="M1786 1810c16 0 149 131 149 147 0 27-27 11-93-55-64-64-81-92-56-92z"/><path id="p1BpCVfYfx" class="s0" d="M1835 905c32 30 40 65 16 65-20 0-46-39-46-69v-25z"/><path id="pu6KjG577" class="s0" d="M1839 1000c10 0 16 9 16 21 0 24-23 21-28-4-2-10 3-17 12-17z"/><path id="p112lNTcD9" class="s0" d="M1871 1820c26 0 42 12 93 69 34 38 57 72 51 76-15 9-40-8-110-79l-64-66z"/><path id="pdhqfnbgW" class="s0" d="M1950 1814c25-10 169 135 152 153-12 11-66-29-115-86-44-50-50-62-37-67z"/><path id="p6QNfSQad" class="s0" d="M1998 1760c22 0 147 136 147 159 0 12-3 21-8 21-4 0-40-33-80-73-68-68-89-107-59-107z"/><path id="pLRzxmnl7" class="s0" d="M2004 1686c4-3 43 30 85 73 53 55 74 84 70 95-3 9-7 16-9 16-1 0-37-33-79-73-70-67-89-98-67-111z"/><path id="pfvuqXesM" class="s0" d="M2029 1620c18 0 146 137 146 156 0 28-27 12-93-54-64-64-83-102-53-102z"/><path id="pTW1xmAhr" class="s0" d="M2033 1553c12-20 152 123 152 156 0 23-8 18-80-54-84-84-84-83-72-102z"/><path id="pFSEFyy5h" class="s0" d="M2058 1480c7 0 43 31 81 69 52 52 67 74 64 92-3 21-10 17-81-51-71-70-95-110-64-110z"/><path id="p01DmlNqv" class="s0" d="M2065 1420c5-8 13-11 17-7 61 56 143 144 143 154 0 28-28 10-97-59-55-55-70-77-63-88z"/><path id="przmBcIij" class="s0" d="M2088 1340c20 0 160 146 153 159-13 21-30 11-98-56-64-64-85-103-55-103z"/><path id="pSd4LJYRv" class="s0" d="M2143 1302c93 83 132 138 99 138-23 0-147-134-147-159 0-21 4-20 48 21z"/><path id="pR2uuAgQG" class="s0" d="M2123 1200c18 0 142 139 142 159 0 31-21 17-89-59-55-62-75-100-53-100z"/><path id="p1EjN3pvms" class="s0" d="M2139 1130c21 0 146 137 146 160 0 11-3 20-8 20-4 0-40-33-80-73-68-69-89-107-58-107z"/><path id="pcvW1ANbw" class="s0" d="M2146 1064c14-9 159 135 159 158 0 10-3 18-8 18-9 0-162-153-162-162 0-4 5-10 11-14z"/><path id="p1DPU6g9to" class="s0" d="M2164 986c14-9 151 139 151 163 0 12-3 21-8 21-4 0-40-33-80-73-67-67-84-98-63-111z"/><path id="pdYt4RWLm" class="s0" d="M2183 916c14-8 155 153 148 169-9 25-21 17-90-59-62-70-77-98-58-110z"/><path id="pXEs7PwK4" class="s0" d="M2198 850c22 0 147 136 147 159 0 32-25 15-98-67-62-70-74-92-49-92z"/><path id="p19xrbtOFT" class="s0" d="M2208 786c12-17 19-12 85 59 63 67 89 115 64 115-4 0-42-35-85-78-69-70-76-80-64-96z"/><path id="pCcr25x8w" class="s0" d="M2222 711c6-15 163 135 163 156 0 33-28 19-96-48-73-72-78-80-67-108z"/><path id="pUjUbrtqo" class="s0" d="M2242 630c9 0 163 162 163 172 1 27-31 9-95-53-51-49-75-80-75-96 0-13 3-23 7-23z"/><path id="p1HiR1iDwH" class="s0" d="M2253 576c3-15 19-3 83 60 69 68 97 114 71 114-27 0-160-149-154-174z"/><path id="pxohIXbHT" class="s0" d="M2276 504c7-4 40 22 82 65 38 39 71 71 73 71 17 0-7-34-71-99-65-67-92-111-68-111 4 0 36 28 70 62 88 87 92 64 5-26-68-69-88-106-60-106 7 0 36 23 65 52 73 73 76 55 3-23-55-58-75-99-50-99 5 0 30 20 56 45s49 44 52 41c5-6-45-71-77-100-12-11-21-31-21-45 0-24 2-24 45 19 27 27 45 38 45 29 0-8-18-33-40-54-24-23-40-48-40-62 0-31 11-29 45 7 16 16 31 28 34 25 2-3-12-23-32-43-26-26-36-44-31-55 8-21 18-21 34-2 7 8 19 15 27 15 10 0 4-12-16-37-38-46-39-62-4-63 16 0 77-2 138-4 60-1 116-1 122 2 10 3 13 186 13 871 0 476-3 876-6 889-6 22-9 23-123 20l-116-3-1-543V699l-82-82c-82-82-92-99-71-113z"/><path id="piF8l3vhx" class="s0" d="M2471 1817c18-18 46-2 109 64 47 48 65 73 58 80-8 8-17 8-29 1-31-17-145-138-138-145z"/><path id="p13ucNJSsf" class="s0" d="M2571 1816c18-7 167 131 158 145-12 20-39 6-96-48-71-69-84-89-62-97z"/><path id="pcslZUbBv" class="s0" d="M2667 1815c13 4 51 37 85 73 50 55 58 69 45 76-11 7-31-8-84-61-71-74-84-99-46-88z"/><path id="pofmmx2ok" class="s0" d="M2705 60c8-12 21-4 70 45 72 71 87 92 71 108-8 8-30-8-81-58-39-38-70-72-70-75s5-12 10-20z"/><path id="pJDezrrpt" class="s0" d="M2702 137c12-13 143 125 143 150 0 13-2 23-4 23-8 0-141-142-144-154-1-6 1-15 5-19z"/><path id="pDv0on6vo" class="s0" d="M2706 224c11-6 118 96 137 132 6 11 7 26 3 32-5 8-31-12-79-62-72-74-81-89-61-102z"/><path id="p1CxR6fZdM" class="s0" d="M2702 306c12-12 143 126 143 151 0 13-4 23-9 23-13 0-141-140-141-155 0-6 3-15 7-19z"/><path id="p17TjZXA7u" class="s0" d="M2703 396c5-3 38 25 75 61 48 47 67 74 67 92 0 23-7 18-75-49-71-71-85-92-67-104z"/><path id="pTIGKU8CE" class="s0" d="M2706 484c6-3 38 20 71 52 70 70 84 92 69 107-8 8-30-8-81-58-69-69-80-87-59-101z"/><path id="poZmJ0jpY" class="s0" d="M2706 564c14-9 151 135 147 155-5 23-18 14-91-56-66-64-78-85-56-99z"/><path id="p1FTRVRg7F" class="s0" d="M2705 650c14 0 84 65 122 112 24 30 28 42 19 51s-28-4-81-59c-64-65-86-104-60-104z"/><path id="p19PEbPY3J" class="s0" d="M2704 732c17 6 118 104 136 132 14 21 15 30 6 39-10 9-28-4-82-60-40-43-69-82-69-94 0-11 4-19 9-17z"/><path id="p16xdUgQhi" class="s0" d="M2703 810c12 0 152 146 152 158 0 32-29 18-91-44-45-45-69-76-69-91 0-13 4-23 8-23z"/><path id="p6CnKraLN" class="s0" d="M2708 910c15 0 147 133 147 147 0 28-21 16-87-49-71-70-88-98-60-98z"/><path id="pkwSp4Cx8" class="s0" d="M2705 990c16 0 94 75 125 120 20 29 25 44 18 51s-32-11-82-62c-64-65-88-109-61-109z"/><path id="pHj1eyNGJ" class="s0" d="M2704 1081c8-12 151 128 151 147 0 31-28 18-85-38-64-63-79-88-66-109z"/><path id="p1H34q1NCf" class="s0" d="M2704 1166c4-3 38 24 75 61 46 46 66 74 66 91 0 14-3 22-8 18-4-3-37-37-75-73-64-65-77-86-58-97z"/><path id="p140PIzKEF" class="s0" d="M2708 1250c7 0 41 28 75 63 48 48 62 69 62 92 0 29-2 27-75-45-70-69-93-110-62-110z"/><path id="pqfS4kQPj" class="s0" d="M2708 1340c23 0 148 136 141 154-3 9-9 16-13 16-11 0-141-147-141-159 0-6 6-11 13-11z"/><path id="pl2xIagYs" class="s0" d="M2702 1420c13 0 59 42 108 99 33 38 44 56 36 64s-27-4-67-43c-62-62-100-120-77-120z"/><path id="pn2Cxnt2j" class="s0" d="M2702 1511c4-9 28 9 74 55 55 55 69 74 69 99 0 29-2 28-75-46-75-76-78-82-68-108z"/><path id="pKNsubjeu" class="s0" d="M2703 1590c12 0 152 146 152 158 0 29-23 15-89-52-63-66-87-106-63-106z"/><path id="pr2f1MJg0" class="s0" d="M2706 1684c6-4 39 21 76 58 51 51 64 70 61 89-4 22-9 19-67-41-72-75-86-96-70-106z"/><path id="pKXtQ3oQQ" class="s0" d="M2703 1772c10-15 156 131 150 150-9 27-29 15-92-55-72-81-69-76-58-95z"/><path id="pFIjfCzka" class="s0" d="M2924 205c14-78 58-133 141-176 40-21 61-24 199-27 85-2 178-1 208 3 76 9 138 54 180 130l33 60v325l-118-2-117-3-5-116c-7-156-9-159-140-159-146 0-143-5-141 213 1 128 1 129 29 155 16 15 80 56 143 91 149 84 224 134 277 185 74 70 72 59 72 407 0 296-1 315-21 356-25 51-66 88-136 120-50 23-58 24-240 19-103-2-200-9-215-15-42-16-101-75-127-126-22-45-24-59-26-264-1-119 0-222 3-228 3-10 36-13 117-13 94 0 114 3 119 16 3 9 6 92 6 185 0 214-3 209 135 209 88 0 98-2 120-25l25-24v-433l-29-26c-15-15-64-47-107-71-218-121-342-209-369-261-13-26-17-73-19-248-2-119 0-235 3-257z"/><path id="p43jmMucs" class="s0" d="M3115 1810c14 0 108 88 121 112 19 35-12 18-72-39-58-55-70-73-49-73z"/><path id="pW8dgxgXr" class="s0" d="M3144 900c14 0 60 40 72 62 18 34 3 31-40-7-39-36-51-55-32-55z"/><path id="paAyIVyqr" class="s0" d="M3202 1815c29 7 142 120 143 143 1 30-40 7-102-58-74-77-83-96-41-85z"/><path id="pS86AIcNO" class="s0" d="M3193 352c12-18 154 130 146 152-3 9-9 16-13 16-11 0-141-136-141-147 0-4 4-14 8-21z"/><path id="p1BNlvEzjw" class="s0" d="M3198 430c19 0 134 121 140 147 10 43-10 32-82-41-67-70-87-106-58-106z"/><path id="piBYo6Qju" class="s0" d="M3199 520c14 0 136 124 136 139 0 21-47-6-96-56-53-52-68-83-40-83z"/><path id="pKYz1VRA7" class="s0" d="M3197 1210c15 0 148 133 148 148 0 26-29 9-93-56s-81-92-55-92z"/><path id="p1HQEGGZEx" class="s0" d="M3194 1290c15 0 66 46 112 101 33 39 39 53 30 62-10 9-28-4-82-61q-94.5-102-60-102z"/><path id="pjMNVyi9L" class="s0" d="M3193 1370c13 0 142 134 142 148 0 29-38 8-92-50-51-55-73-98-50-98z"/><path id="p18mHpK2qh" class="s0" d="M3194 1466c11-7 62 44 55 55-8 14-31 11-48-7-18-17-21-40-7-48z"/><path id="p1GKBbq5UZ" class="s0" d="M3208 270c15 0 152 146 152 162 0 29-27 12-93-56-68-70-88-106-59-106z"/><path id="pQ1Mh9gDR" class="s0" d="M3269 264c20-8 134 92 142 124 15 55-23 35-100-52-45-51-54-67-42-72z"/><path id="pIVNAt6Hq" class="s0" d="M3287 1815c31 8 151 136 139 148-14 14-45-8-105-75-61-69-67-83-34-73z"/><path id="pEaqJpFTp" class="s0" d="M3337 1016c42 21 78 54 78 71 0 23-19 14-65-28-53-49-58-66-13-43z"/><path id="p1JGJ9MgT" class="s0" d="M3367 270c37 0 48 12 48 51 0 27-12 24-50-16l-34-35z"/><path id="px08OYexf" class="s0" d="M3372 1820c26 0 41 11 92 67 34 37 61 71 61 75 0 25-42-1-109-67-76-75-76-75-44-75z"/><path id="pJOyD57Bx" class="s0" d="M3449 1810c17 0 44 20 88 66 74 77 78 84 45 84-16 0-44-21-90-69-37-38-67-72-67-75s11-6 24-6z"/><path id="p62ZgcFR8" class="s0" d="M3523 1800c10 0 52 35 93 77 60 62 70 78 55 81-13 3-42-19-92-69-41-41-74-77-74-81 0-5 8-8 18-8z"/><path id="pzU0oU72t" class="s0" d="M3555 540c25 0 163 142 148 151-21 13-50-5-108-71-33-37-60-70-60-74 0-3 9-6 20-6z"/><path id="p11iatHPcn" class="s0" d="M3583 1770c20 0 162 138 162 158 0 31-44 6-109-64-39-42-71-80-71-85s8-9 18-9z"/><path id="pDl9O1le7" class="s0" d="M3632 540c26 0 42 11 97 72 36 40 66 76 66 80 0 25-42-2-114-72-81-79-81-80-49-80z"/><path id="pGxZ3tZes" class="s0" d="M3625 1735c16-10 52 18 111 86 52 59 60 74 39 74-12 0-160-134-160-145 0-5 5-12 10-15z"/><path id="pCvttl2w9" class="s0" d="M3666 1689c6-11 27 5 91 68 74 74 81 84 67 98-13 13-23 6-91-68-56-61-74-87-67-98z"/><path id="p1FiByNdQG" class="s0" d="M3695 1630c8-12 24-1 85 60 70 69 86 96 68 114-6 6-163-142-163-154 0-3 5-12 10-20z"/><path id="pmRRu3Kly" class="s0" d="M3712 190c15 0 76 55 99 90 44 66 21 64-44-3-56-59-74-87-55-87z"/><path id="plEJ0mI7M" class="s0" d="M3717 530c18 0 26 7 92 77 42 45 57 67 52 80-6 14-21 3-81-57-72-71-90-100-63-100z"/><path id="p8xuzV055" class="s0" d="M3723 270c18 0 142 139 142 159 0 12-4 21-9 21-15 0-141-146-141-164 0-9 4-16 8-16z"/><path id="pJP6HZyCd" class="s0" d="M3790 420c70 69 88 101 66 114-15 10-141-138-141-165 0-20 11-13 75 51z"/><path id="pxdaYIcG2" class="s0" d="M3790 500c50 49 75 82 75 97 0 13-3 23-8 23-4 0-38-30-75-68-52-53-67-74-67-97 0-29 2-27 75 45z"/><path id="psfGGwYbU" class="s0" d="M3760 1020c24 24 42 46 40 49-7 6-85-70-85-83 0-6 20 10 45 34z"/><path id="p1DE2XyzXe" class="s0" d="M3734 1049c28 15 131 130 131 147 0 8-6 14-14 14-20 0-136-127-136-150 0-17 3-19 19-11z"/><path id="pHQUrW0C5" class="s0" d="M3790 1190c50 49 75 82 75 97 0 13-4 23-8 23s-38-31-75-69c-51-52-67-75-67-97 0-27 3-25 75 46z"/><path id="pZcrw7tn7" class="s0" d="M3723 1210c19 0 142 137 142 158 0 12-3 22-8 22-19 0-142-137-142-158 0-12 3-22 8-22z"/><path id="pyPhM2thC" class="s0" d="M3723 1300c19 0 142 137 142 158 0 12-2 22-4 22s-36-33-75-72c-62-64-88-108-63-108z"/><path id="pxXhUtsPD" class="s0" d="M3723 1380c4 0 38 31 76 69 54 55 67 73 64 94-3 25-6 24-76-45-49-48-72-78-72-94 0-13 3-24 8-24z"/><path id="pvNEYUzen" class="s0" d="M3724 1470c17 0 141 141 141 160 0 11-3 20-8 20-19 0-142-137-142-158 0-12 4-22 9-22z"/><path id="pJOBbn6Jp" class="s0" d="M3785 1615c67 67 89 99 76 113-4 3-38-25-76-63-50-49-70-77-70-94 0-23 7-18 70 44z"/><path id="pYoYk6dKY" class="s0" d="M4032 23c3-10 38-13 124-13h119l2 368 3 367h280V383c0-199 3-365 7-368 4-4 55-9 113-11l105-4 10 25c6 17 9 346 7 893l-2 867-113 1c-62 0-116-4-119-9-5-9-8-157-12-624l-1-173h-280l-2 403-3 402-110 1c-61 1-116-3-122-9-10-7-12-201-12-876 0-476 3-872 6-878z"/><path id="pMh6oGg5t" class="s0" d="M4086 1830c15 0 129 111 129 125 0 13-38-16-90-69-33-34-48-56-39-56z"/><path id="pluNUPzuX" class="s0" d="M4146 1820c17 0 43 19 87 63 34 34 62 68 62 74 0 24-40-2-106-68-62-62-66-69-43-69z"/><path id="pFKRSj5Th" class="s0" d="M4231 1810c20 0 154 128 154 147 0 34-57-1-128-78-45-49-52-69-26-69z"/><path id="p16eSOYzpT" class="s0" d="M4306 84c9-5 149 131 149 146 0 3-5 12-10 20-8 12-23 1-79-60-70-75-80-93-60-106z"/><path id="pYtzIKygC" class="s0" d="M4304 166c12-8 154 141 149 156-9 26-28 16-91-52-64-67-78-92-58-104z"/><path id="ptYeJhIh3" class="s0" d="M4303 250c4 0 38 30 75 68 46 46 67 75 67 92 0 22-9 16-75-50-65-65-93-110-67-110z"/><path id="piOg7b5hL" class="s0" d="M4306 344c17-10 139 116 139 143 0 13-4 23-8 23-12 0-142-136-142-148 0-6 5-14 11-18z"/><path id="pcwfTSy8c" class="s0" d="M4305 430c8-12 20-4 66 45 69 72 88 101 79 116-5 7-34-16-81-62-41-41-74-76-74-79s5-12 10-20z"/><path id="ppeEJcNCs" class="s0" d="M4304 516c23-15 160 139 141 158-7 7-27-6-66-44-59-59-90-105-75-114z"/><path id="p1GdWtp6xI" class="s0" d="M4302 590c10 0 123 112 123 122 0 4-10 8-23 8-30 0-107-78-107-108 0-12 3-22 7-22z"/><path id="pd5ON3j2p" class="s0" d="M4305 685c12-7 40 12 40 26 0 5-11 9-25 9-25 0-35-23-15-35z"/><path id="paTSWZ450" class="s0" d="M4303 1026c10-6 137 121 145 146 13 38-11 24-80-44-70-69-83-91-65-102z"/><path id="pVySWg9N8" class="s0" d="M4306 1110c16 0 130 112 140 138 20 51-7 41-77-29-67-67-92-109-63-109z"/><path id="p29ALj6fm" class="s0" d="M4303 1203c12-19 145 118 140 145-3 19-13 12-76-49-75-73-77-76-64-96z"/><path id="ppIAsMj5W" class="s0" d="M4304 1286c24-15 160 139 141 158-8 8-30-9-80-60-69-70-79-87-61-98z"/><path id="pt4RasZ06" class="s0" d="M4308 1370c15 0 147 132 147 147 0 4-4 14-9 21-6 10-27-8-80-64-69-76-85-104-58-104z"/><path id="pjvpNbaVH" class="s0" d="M4304 1456c4-3 40 28 80 68 51 53 69 79 65 91-6 13-21 2-80-56-71-70-84-91-65-103z"/><path id="pvd6fjWjz" class="s0" d="M4308 1540c24 0 148 136 141 154-5 13-15 9-55-25-84-70-123-129-86-129z"/><path id="pxLHM1nIN" class="s0" d="M4306 1624c6-3 35 19 66 52 68 72 87 100 78 115-5 7-34-16-81-62-73-73-84-91-63-105z"/><path id="pSquSlv3d" class="s0" d="M4301 1717c12-12 36 7 95 75 45 53 57 73 49 82-9 8-29-8-81-62-68-73-75-83-63-95z"/><path id="p1FYov7fSB" class="s0" d="M4304 1796c9-6 151 136 151 152 0 33-29 17-91-47-65-68-80-93-60-105z"/><path id="p8iXNOskJ" class="s0" d="M4369 1010c24 0 58 29 125 105 36 42 33 62-7 41-26-13-142-128-142-140 0-3 11-6 24-6z"/><path id="p1FPqsQxM6" class="s0" d="M4452 1010c43 0 104 76 75 94-10 6-18 0-67-52l-39-42z"/><path id="phQ5c2W0U" class="s0" d="M4656 1814c13-7 149 123 149 143 0 26-23 12-91-54-71-68-77-77-58-89z"/><path id="pOH1DSRht" class="s0" d="M4751 1814c31 8 156 137 144 149-15 16-47-3-109-67-67-70-76-92-35-82z"/><path id="pgfZzwKDE" class="s0" d="M4834 1810c28 0 147 138 132 153-8 8-28-6-81-60-73-75-83-93-51-93z"/><path id="p1CK4Drsfu" class="s0" d="M4836 100c13 0 127 108 140 133 6 9 7 22 3 28-4 7-36-19-80-62-69-69-89-99-63-99z"/><path id="prbK9gUlG" class="s0" d="M4837 180c13 0 110 99 136 138 11 16 12 26 4 34-14 14-152-123-152-152 0-11 5-20 12-20z"/><path id="pwTXEW3JS" class="s0" d="M4837 270c13 0 123 113 139 142 6 11 5 19-2 24-7 4-40-24-80-65-66-68-84-101-57-101z"/><path id="pdVQsaNjS" class="s0" d="M4834 356c10-6 151 137 151 153 0 26-31 7-93-58-66-68-76-84-58-95z"/><path id="pwpwuNhau" class="s0" d="M4834 440c13 0 129 108 142 133 8 14 8 22-1 31-8 8-28-7-80-60-63-65-86-104-61-104z"/><path id="pU83txMi6" class="s0" d="M4838 530c16 0 147 133 147 149 0 26-33 7-94-55-64-64-81-94-53-94z"/><path id="p4OGTZdcC" class="s0" d="M4837 614c7-5 35 18 71 57 70 77 78 91 67 110-8 11-23-1-72-55-68-75-84-101-66-112z"/><path id="p4SPH5OAZ" class="s0" d="M4834 696c9-6 151 136 151 152 0 6-5 14-11 18-13 7-114-88-135-128-16-32-17-35-5-42z"/><path id="pBOUIRIkT" class="s0" d="M4834 786c9-6 151 136 151 151 0 28-21 16-87-49-70-69-83-91-64-102z"/><path id="p1GqgGGQI0" class="s0" d="M4838 870c18 0 133 120 141 147 13 44-13 31-83-41-67-70-87-106-58-106z"/><path id="p11y997cqY" class="s0" d="M4839 950c8 0 37 26 66 57 68 74 86 101 73 114-6 6-35-17-81-65-69-71-88-106-58-106z"/><path id="p2DikQrJM" class="s0" d="M4833 1046c14-8 49 21 103 86 38 46 47 63 39 72-9 8-29-8-81-63-69-75-76-85-61-95z"/><path id="p1FHFl806k" class="s0" d="M4833 1132c6-9 29 9 80 62 40 41 72 79 72 84 0 31-28 16-91-48-72-75-74-77-61-98z"/><path id="perxTSfMB" class="s0" d="M4838 1210c7 0 43 31 81 69 56 57 67 72 61 91-7 21-12 17-81-51s-92-109-61-109z"/><path id="pCqr36LIA" class="s0" d="M4838 1300c16 0 147 133 147 148 0 29-23 15-89-52-70-73-84-96-58-96z"/><path id="p160KRegul" class="s0" d="M4838 1470c22 0 137 124 137 148 0 12-4 22-9 22-14 0-141-142-141-157 0-7 6-13 13-13z"/><path id="p19UCk8KQD" class="s0" d="M4836 1640c13 0 127 108 141 133 7 13 6 23-2 31s-28-7-80-60c-64-66-86-104-59-104z"/><path id="p98cSwC5Z" class="s0" d="M4836 1739c12-21 139 106 139 140 0 22-7 18-69-40-77-72-83-80-70-100z"/><path id="p1Fbf8heEc" class="s0" d="M4844 1380c17 0 142 143 139 159-5 23-16 16-86-51-42-41-62-67-62-84 0-13 4-24 9-24z"/><path id="pGOEAya4z" class="s0" d="M4910 1622c41 43 75 82 75 88 0 24-30 6-88-53-43-43-62-70-62-87 1-22 10-16 75 52z"/></g></g></svg>